<svg width="280" height="280" viewBox="0 0 280 280" fill="none" xmlns="http://www.w3.org/2000/svg">
<path opacity="0.6" d="M0 44C0 19.6995 19.6995 0 44 0H236C260.301 0 280 19.6995 280 44V236C280 260.301 260.301 280 236 280H44C19.6995 280 0 260.301 0 236V44Z" fill="#323232"/>
<path d="M92.4676 91.2H138.26C149.204 91.2 158.852 93.312 167.204 97.536C175.652 101.664 182.18 107.52 186.788 115.104C191.492 122.688 193.844 131.52 193.844 141.6C193.844 151.68 191.492 160.512 186.788 168.096C182.18 175.68 175.652 181.584 167.204 185.808C158.852 189.936 149.204 192 138.26 192H92.4676V91.2ZM137.108 172.848C147.188 172.848 155.204 170.064 161.156 164.496C167.204 158.832 170.228 151.2 170.228 141.6C170.228 132 167.204 124.416 161.156 118.848C155.204 113.184 147.188 110.352 137.108 110.352H115.796V172.848H137.108Z" fill="white"/>
</svg>
