<svg width="280" height="280" viewBox="0 0 280 280" fill="none" xmlns="http://www.w3.org/2000/svg">
<path opacity="0.6" d="M0 44C0 19.6995 19.6995 0 44 0H236C260.301 0 280 19.6995 280 44V236C280 260.301 260.301 280 236 280H44C19.6995 280 0 260.301 0 236V44Z" fill="#323232"/>
<path d="M140.007 89.472C149.319 89.472 157.431 91.296 164.343 94.944C171.255 98.592 176.631 103.968 180.471 111.072C184.311 118.176 186.231 126.768 186.231 136.848V192H162.903V167.808H116.823V192H93.7833V136.848C93.7833 126.768 95.7033 118.176 99.5433 111.072C103.383 103.968 108.759 98.592 115.671 94.944C122.583 91.296 130.695 89.472 140.007 89.472ZM162.903 149.088V134.688C162.903 126.336 160.839 120.048 156.711 115.824C152.583 111.504 146.967 109.344 139.863 109.344C132.663 109.344 126.999 111.504 122.871 115.824C118.839 120.048 116.823 126.336 116.823 134.688V149.088H162.903Z" fill="white"/>
</svg>
