<svg width="280" height="280" viewBox="0 0 280 280" fill="none" xmlns="http://www.w3.org/2000/svg">
<path opacity="0.6" d="M0 44C0 19.6995 19.6995 0 44 0H236C260.301 0 280 19.6995 280 44V236C280 260.301 260.301 280 236 280H44C19.6995 280 0 260.301 0 236V44Z" fill="#323232"/>
<path d="M147.387 193.728C137.115 193.728 127.803 191.52 119.451 187.104C111.195 182.592 104.667 176.4 99.8673 168.528C95.1633 160.56 92.8113 151.584 92.8113 141.6C92.8113 131.616 95.1633 122.688 99.8673 114.816C104.667 106.848 111.195 100.656 119.451 96.24C127.803 91.728 137.163 89.472 147.531 89.472C156.267 89.472 164.139 91.008 171.147 94.08C178.251 97.152 184.203 101.568 189.003 107.328L174.027 121.152C167.211 113.28 158.763 109.344 148.683 109.344C142.443 109.344 136.875 110.736 131.979 113.52C127.083 116.208 123.243 120 120.459 124.896C117.771 129.792 116.427 135.36 116.427 141.6C116.427 147.84 117.771 153.408 120.459 158.304C123.243 163.2 127.083 167.04 131.979 169.824C136.875 172.512 142.443 173.856 148.683 173.856C158.763 173.856 167.211 169.872 174.027 161.904L189.003 175.728C184.203 181.584 178.251 186.048 171.147 189.12C164.043 192.192 156.123 193.728 147.387 193.728Z" fill="white"/>
</svg>
