<svg width="280" height="280" viewBox="0 0 280 280" fill="none" xmlns="http://www.w3.org/2000/svg">
<path opacity="0.6" d="M0 44C0 19.6995 19.6995 0 44 0H236C260.301 0 280 19.6995 280 44V236C280 260.301 260.301 280 236 280H44C19.6995 280 0 260.301 0 236V44Z" fill="#323232"/>
<path d="M170.913 139.584C176.673 141.408 181.185 144.48 184.449 148.8C187.713 153.024 189.345 158.256 189.345 164.496C189.345 173.328 185.889 180.144 178.977 184.944C172.161 189.648 162.177 192 149.025 192H96.8973V91.2H146.145C158.433 91.2 167.841 93.552 174.369 98.256C180.993 102.96 184.305 109.344 184.305 117.408C184.305 122.304 183.105 126.672 180.705 130.512C178.401 134.352 175.137 137.376 170.913 139.584ZM120.081 108.768V132.528H143.265C149.025 132.528 153.393 131.52 156.369 129.504C159.345 127.488 160.833 124.512 160.833 120.576C160.833 116.64 159.345 113.712 156.369 111.792C153.393 109.776 149.025 108.768 143.265 108.768H120.081ZM147.297 174.432C153.441 174.432 158.049 173.424 161.121 171.408C164.289 169.392 165.873 166.272 165.873 162.048C165.873 153.696 159.681 149.52 147.297 149.52H120.081V174.432H147.297Z" fill="white"/>
</svg>
