<svg width="363" height="146" viewBox="0 0 363 146" fill="none" xmlns="http://www.w3.org/2000/svg">
<path d="M55.1058 31.0565L51.5156 33.8189C49.54 31.2363 47.1627 29.2778 44.3838 27.9435C41.6173 26.6092 38.5744 25.942 35.2471 25.942C31.6242 25.942 28.2654 26.8206 25.1705 28.5677C22.0757 30.3147 19.6883 32.6656 17.9869 35.6089C16.2877 38.5523 15.4313 41.8768 15.4313 45.5506C15.4313 51.1197 17.3325 55.7682 21.1358 59.4839C24.9381 63.2109 29.7333 65.0744 35.5326 65.0744C41.9028 65.0744 47.2259 62.5755 51.5156 57.5786L55.1058 60.3094C52.8346 63.2008 50.0049 65.4453 46.6133 67.0228C43.2217 68.6002 39.4307 69.394 35.2471 69.394C27.2827 69.394 20.9982 66.7367 16.4039 61.4221C12.5475 56.9431 10.6147 51.5222 10.6147 45.1797C10.6147 38.5094 12.9491 32.8872 17.6179 28.3347C22.298 23.7721 28.1492 21.4958 35.1839 21.4958C39.4307 21.4958 43.2646 22.3315 46.6877 24.005C50.1098 25.6876 52.9192 28.0385 55.1058 31.0565V31.0565ZM82.8657 22.6391L104.097 68.2508H99.2064L92.0972 53.2591H72.3762L65.3098 68.2508H60.2394L81.7239 22.6391H82.8657V22.6391ZM82.2948 32.2099L74.468 48.8118H90.09L82.2948 32.2099ZM106.419 59.7169L110.286 57.3875C113.012 62.4273 116.159 64.9478 119.73 64.9478C121.262 64.9478 122.697 64.5871 124.038 63.8781C125.381 63.1691 126.406 62.2057 127.103 61.0082C127.81 59.8119 128.159 58.542 128.159 57.1975C128.159 55.6721 127.641 54.1795 126.606 52.7084C125.18 50.6854 122.581 48.2396 118.79 45.3923C114.986 42.5123 112.621 40.4373 111.692 39.1562C110.075 37.0066 109.272 34.6772 109.272 32.1782C109.272 30.1982 109.748 28.3879 110.698 26.7573C111.649 25.1267 112.99 23.8456 114.722 22.9037C116.455 21.9617 118.325 21.4958 120.354 21.4958C122.507 21.4958 124.525 22.025 126.394 23.0936C128.265 24.1531 130.251 26.1116 132.341 28.96L128.624 31.7869C126.902 29.5107 125.433 28.0068 124.219 27.2865C123.004 26.556 121.684 26.1964 120.258 26.1964C118.41 26.1964 116.899 26.7573 115.725 27.8688C114.553 28.9917 113.962 30.3577 113.962 31.9984C113.962 32.9833 114.173 33.9467 114.585 34.8785C114.996 35.8102 115.758 36.8155 116.856 37.9168C117.448 38.489 119.424 40.0133 122.76 42.4693C126.711 45.3923 129.427 47.9863 130.895 50.2512C132.363 52.5275 133.102 54.815 133.102 57.1127C133.102 60.4157 131.845 63.2957 129.342 65.7314C126.828 68.1761 123.774 69.394 120.184 69.394C117.417 69.394 114.902 68.6533 112.653 67.1709C110.402 65.6885 108.322 63.2008 106.419 59.7169V59.7169ZM138.173 27.0852V22.6391H163.081V27.0852H152.94V68.2508H148.314V27.0852H138.173ZM169.661 22.6391H174.225V119.983H191.78V124.431H169.661V22.6391V22.6391ZM198.995 22.6391H225.043V27.0852H203.558V41.3792H224.853V45.8254H203.558V63.8035H224.853V68.2508H198.995V22.6391V22.6391Z" fill="white"/>
<path d="M222.74 76.5619L245.024 124.431H239.89L232.43 108.697H211.732L204.316 124.431H198.995L221.543 76.5619H222.74V76.5619ZM222.142 86.6076L213.928 104.03H230.324L222.142 86.6076ZM252.45 124.431V76.5619H253.481L285.241 113.175V76.5619H290.029V124.431H288.944L257.372 88.1409V124.431H252.45V124.431ZM301.58 124.431V76.5619H311.491C318.631 76.5619 323.819 77.1397 327.045 78.2852C331.679 79.918 335.304 82.7291 337.91 86.7512C340.515 90.7632 341.824 95.5407 341.824 101.096C341.824 105.896 340.792 110.108 338.719 113.753C336.656 117.397 333.963 120.098 330.671 121.831C327.367 123.564 322.732 124.431 316.779 124.431H301.58V124.431ZM306.171 119.897H311.68C318.264 119.897 322.821 119.486 325.371 118.664C328.952 117.485 331.78 115.386 333.83 112.342C335.881 109.285 336.901 105.564 336.901 101.163C336.901 96.5516 335.792 92.5962 333.565 89.3294C331.348 86.0513 328.243 83.8067 324.273 82.5957C321.291 81.6843 316.38 81.2297 309.54 81.2297H306.171V119.897V119.897Z" fill="white"/>
<path fill-rule="evenodd" clip-rule="evenodd" d="M131.592 19.1178V9.30502H135.652V19.1178H148.837V9.30502H150.628H152.42V19.1178H165.606V9.30502H169.664V19.1178H174.228V4.75708H161.042V14.5699H156.984V4.75708H150.628H144.274V14.5699H140.214V4.75708H127.029V19.1178H131.592Z" fill="white"/>
<path fill-rule="evenodd" clip-rule="evenodd" d="M166.377 59.6049H163.023V68.2507H166.377V59.6049Z" fill="white"/>
<path fill-rule="evenodd" clip-rule="evenodd" d="M166.377 35.3929H163.023V44.0388H166.377V35.3929Z" fill="white"/>
</svg>
